<?xml version="1.0" standalone="no"?><!DOCTYPE svg PUBLIC "-//W3C//DTD SVG 1.1//EN" "http://www.w3.org/Graphics/SVG/1.1/DTD/svg11.dtd"><svg class="icon" width="200px" height="200.00px" viewBox="0 0 1024 1024" version="1.1" xmlns="http://www.w3.org/2000/svg"><path fill="#333333" d="M698.6 311.6c28 35.1 42 73.3 42 114.7s-14 79.6-42 114.7c-28 35.1-66.2 62.9-114.6 83.3-48.4 20.4-100.9 30.6-157.8 30.6-25.6 0-51.8-2.3-78.6-7.1-36.9 26.2-78.3 45.3-124.1 57.2-10.7 2.7-23.5 5.1-38.4 7.1h-1.3c-3.3 0-6.3-1.2-9.1-3.6-2.8-2.3-4.5-5.5-5.2-9.4-0.3-0.9-0.5-1.9-0.5-2.9s0.1-2 0.2-2.9c0.2-0.9 0.5-1.8 0.9-2.7s0.8-1.6 1.1-2.3c0.3-0.6 0.8-1.4 1.6-2.4s1.3-1.8 1.8-2.3 1.1-1.2 2-2.3c0.9-1 1.5-1.7 1.8-2 1.5-1.8 4.9-5.5 10.2-11.2 5.4-5.6 9.2-10 11.6-13.1 2.3-3.1 5.7-7.4 10-13s8.1-11.3 11.2-17.2c3.1-5.9 6.2-12.5 9.1-19.6-36.9-21.4-65.9-47.8-87-79.1-21-31.3-31.5-64.6-31.5-100 0-41.4 14-79.6 42-114.7s66.1-62.9 114.6-83.3c48.4-20.4 100.9-30.6 157.8-30.6 56.8 0 109.5 10.2 157.8 30.6 48.3 20.5 86.4 48.3 114.4 83.5z m213.4 229c0 35.7-10.6 69.1-31.7 100.2s-50.1 57.4-87 78.8c3 7.1 6 13.7 9.1 19.6 3.1 5.9 6.9 11.6 11.2 17.2 4.3 5.5 7.7 9.9 10 13 2.3 3.1 6.3 7.5 11.6 13.1s8.7 9.4 10.2 11.2c0.3 0.3 0.9 0.9 1.8 2 0.9 1 1.6 1.8 2 2.3s1 1.2 1.8 2.3c0.8 1 1.2 1.9 1.6 2.4 0.3 0.6 0.7 1.3 1.1 2.3s0.8 1.8 0.9 2.7 0.2 1.9 0.2 2.9-0.2 2-0.5 2.9c-0.9 4.1-2.8 7.4-5.8 9.9-3 2.3-6.3 3.4-9.9 3.1-14.9-2.1-27.7-4.5-38.4-7.1-45.8-11.9-87.2-31-124.1-57.2-26.8 4.8-53 7.1-78.6 7.1-80.7 0-150.9-19.6-210.7-59 17.3 1.2 30.3 1.8 39.2 1.8 47.9 0 93.9-6.7 137.9-20.1 44-13.4 83.3-32.6 117.8-57.6 37.2-27.4 65.7-59 85.7-94.6 19.9-35.7 30-73.5 30-113.4 0-22.9-3.4-45.5-10.2-67.9 38.4 21.1 68.7 47.6 91.1 79.4 22.5 31.9 33.7 66 33.7 102.7z" /></svg>